<?xml version="1.0" encoding="UTF-8"?>
<svg width="25px" height="24px" viewBox="0 0 25 24" version="1.1" xmlns="http://www.w3.org/2000/svg" xmlns:xlink="http://www.w3.org/1999/xlink">
    <!-- Generator: Sketch 54.1 (76490) - https://sketchapp.com -->
    <title>Group 5</title>
    <desc>Created with Sketch.</desc>
    <defs>
        <path d="M1.414,5.3304 C4.611,6.1591 8.447,6.6418 12.573,6.6418 C16.634,6.6418 20.418,6.1736 23.586,5.3677 L23.586,15.9791 C23.586,17.9944 21.911,19.6243 19.84,19.6243 L5.16,19.6243 C3.089,19.6243 1.414,17.9944 1.414,15.9791 L1.414,5.3304 Z M0.003,0.871 C0.002,0.9194 0.001,0.9681 0.001,1.0168 L0.001,4.9288 C0.189,4.9873 0.38,5.0446 0.574,5.1005 L0.574,16.276 C0.574,18.5724 2.495,20.4417 4.855,20.4417 L20.145,20.4417 C22.505,20.4417 24.426,18.5724 24.426,16.276 L24.426,5.142 C24.62,5.0872 24.811,5.0309 24.999,4.9735 L24.999,0.9532 C25,0.9824 25,1.012 25,1.0413 L25,16.6342 C25,19.0406 22.986,21 20.513,21 L4.487,21 C2.014,21 0,19.0406 0,16.6342 L0,1.0413 C0,0.9845 0.001,0.9277 0.003,0.871 Z" id="path-1"></path>
        <linearGradient x1="69.8611111%" y1="92.4474684%" x2="69.8611111%" y2="142.301412%" id="linearGradient-3">
            <stop stop-color="#455E9B" offset="0%"></stop>
            <stop stop-color="#5A70B3" offset="100%"></stop>
        </linearGradient>
        <path d="M1.414,5.3304 C4.611,6.1591 8.447,6.6418 12.573,6.6418 C16.634,6.6418 20.418,6.1736 23.586,5.3677 L23.586,15.9791 C23.586,17.9944 21.911,19.6243 19.84,19.6243 L5.16,19.6243 C3.089,19.6243 1.414,17.9944 1.414,15.9791 L1.414,5.3304 Z M0.003,0.871 C0.002,0.9194 0.001,0.9681 0.001,1.0168 L0.001,4.9288 C0.189,4.9873 0.38,5.0446 0.574,5.1005 L0.574,16.276 C0.574,18.5724 2.495,20.4417 4.855,20.4417 L20.145,20.4417 C22.505,20.4417 24.426,18.5724 24.426,16.276 L24.426,5.142 C24.62,5.0872 24.811,5.0309 24.999,4.9735 L24.999,0.9532 C25,0.9824 25,1.012 25,1.0413 L25,16.6342 C25,19.0406 22.986,21 20.513,21 L4.487,21 C2.014,21 0,19.0406 0,16.6342 L0,1.0413 C0,0.9845 0.001,0.9277 0.003,0.871 Z" id="path-4"></path>
        <linearGradient x1="60.0384903%" y1="92.6048689%" x2="60.3897471%" y2="93.247742%" id="linearGradient-6">
            <stop stop-color="#455E9B" offset="0%"></stop>
            <stop stop-color="#5A70B3" offset="100%"></stop>
        </linearGradient>
        <path d="M1.607,5.2348 L1.607,19.534 C1.607,21.5508 3.253,23.182 5.288,23.182 L19.712,23.182 C21.747,23.182 23.393,21.5508 23.393,19.534 L23.393,5.2348 C23.393,3.2233 21.747,1.5872 19.712,1.5872 L5.288,1.5872 C3.253,1.5872 1.607,3.2233 1.607,5.2348 Z M0.781,4.9429 C0.781,2.645 2.669,0.7742 4.988,0.7742 L20.012,0.7742 C22.331,0.7742 24.219,2.645 24.219,4.9429 L24.219,19.8311 C24.219,22.1293 22.331,24 20.012,24 L4.988,24 C2.669,24 0.781,22.1293 0.781,19.8311 L0.781,4.9429 Z" id="path-7"></path>
        <path d="M20.718,0 C20.884,0 21.048,0.0111 21.209,0.0306 C23.33,0.3807 24.964,2.3076 25,4.636 L25,4.6452 C24.952,2.0758 22.957,0 20.513,0 L4.485,0 C2.069,0 0.092,2.0279 0,4.5559 C0.073,2.2226 1.752,0.3111 3.903,0.0147 C4.012,0.0059 4.121,0 4.232,0 L20.718,0 Z" id="path-9"></path>
        <path d="M19.84,1.2777 C21.911,1.2777 23.587,2.8018 23.587,4.6754 L23.587,8.1026 C20.418,8.8539 16.635,9.2903 12.572,9.2903 C8.447,9.2903 4.611,8.8404 1.413,8.0679 L1.413,4.6753 C1.413,2.8017 3.088,1.2777 5.16,1.2777 L19.84,1.2777 Z M20.513,0 C22.957,0 24.952,1.782 25,3.9876 L25,7.7352 C24.81,7.7893 24.618,7.8417 24.427,7.8923 L24.427,4.4035 C24.427,2.2631 22.506,0.5205 20.145,0.5205 L4.855,0.5205 C2.494,0.5205 0.573,2.2631 0.573,4.4035 L0.573,7.8536 C0.381,7.802 0.19,7.7487 0,7.6935 L0,4.0469 C0,4.0014 0.001,3.956 0.002,3.9109 C0.095,1.7408 2.072,0 4.487,0 L20.513,0 Z" id="path-11"></path>
        <linearGradient x1="69.8611111%" y1="92.2590068%" x2="69.8611111%" y2="142.11295%" id="linearGradient-13">
            <stop stop-color="#697BB0" offset="0%"></stop>
            <stop stop-color="#7688C2" offset="100%"></stop>
        </linearGradient>
        <path d="M19.84,1.2777 C21.911,1.2777 23.587,2.8018 23.587,4.6754 L23.587,8.1026 C20.418,8.8539 16.635,9.2903 12.572,9.2903 C8.447,9.2903 4.611,8.8404 1.413,8.0679 L1.413,4.6753 C1.413,2.8017 3.088,1.2777 5.16,1.2777 L19.84,1.2777 Z M20.513,0 C22.957,0 24.952,1.782 25,3.9876 L25,7.7352 C24.81,7.7893 24.618,7.8417 24.427,7.8923 L24.427,4.4035 C24.427,2.2631 22.506,0.5205 20.145,0.5205 L4.855,0.5205 C2.494,0.5205 0.573,2.2631 0.573,4.4035 L0.573,7.8536 C0.381,7.802 0.19,7.7487 0,7.6935 L0,4.0469 C0,4.0014 0.001,3.956 0.002,3.9109 C0.095,1.7408 2.072,0 4.487,0 L20.513,0 Z" id="path-14"></path>
        <linearGradient x1="60.1612389%" y1="92.475714%" x2="60.5125199%" y2="93.0749849%" id="linearGradient-16">
            <stop stop-color="#697BB0" offset="0%"></stop>
            <stop stop-color="#7688C2" offset="100%"></stop>
        </linearGradient>
        <path d="M20.012,0.7742 C22.331,0.7742 24.219,2.5535 24.219,4.739 L24.219,8.3013 C23.945,8.3765 23.669,8.4481 23.393,8.5161 L23.393,5.0166 C23.393,3.1035 21.747,1.5474 19.712,1.5474 L5.288,1.5474 C3.253,1.5474 1.607,3.1035 1.607,5.0166 L1.607,8.4806 C1.331,8.4113 1.055,8.3383 0.781,8.2617 L0.781,4.739 C0.781,2.5535 2.669,0.7742 4.988,0.7742 L20.012,0.7742 Z" id="path-17"></path>
        <path d="M9.472,3.27 C8.673,3.27 8.025,3.8964 8.025,4.6689 L8.025,5.7334 L11.094,5.7334 L11.094,8.9067 L8.025,8.9067 L8.025,18.6774 L3.711,18.6774 L3.711,8.9067 L0.938,8.9067 L0.938,5.7334 L3.711,5.7334 L3.711,3.8351 C3.711,1.7705 5.442,0.0968 7.578,0.0968 L11.094,0.0968 L11.094,3.27 L9.472,3.27 Z" id="path-19"></path>
    </defs>
    <g id="Page-1" stroke="none" stroke-width="1" fill="none" fill-rule="evenodd">
        <g id="availability_website-(1)" transform="translate(-1006.000000, -1863.000000)">
            <g id="Group-5" transform="translate(1006.000000, 1863.000000)">
                <g id="Group-72" transform="translate(0.000000, 3.000000)">
                    <g id="Group-68">
                        <mask id="mask-2" fill="white">
                            <use xlink:href="#path-1"></use>
                        </mask>
                        <g id="Clip-67"></g>
                        <polygon id="Fill-66" fill="url(#linearGradient-3)" mask="url(#mask-2)" points="-1006 156 434 156 434 -1898 -1006 -1898"></polygon>
                    </g>
                    <g id="Group-71">
                        <mask id="mask-5" fill="white">
                            <use xlink:href="#path-4"></use>
                        </mask>
                        <g id="Clip-70"></g>
                        <polygon id="Fill-69" fill="url(#linearGradient-6)" mask="url(#mask-5)" points="-1006 156 434 156 434 -1898 -1006 -1898"></polygon>
                    </g>
                </g>
                <g id="Group-4">
                    <g id="Group-75">
                        <mask id="mask-8" fill="white">
                            <use xlink:href="#path-7"></use>
                        </mask>
                        <g id="Clip-74"></g>
                        <polygon id="Fill-73" fill="#8091C1" mask="url(#mask-8)" points="-4.219 -4.2258 29.219 -4.2258 29.219 29 -4.219 29"></polygon>
                    </g>
                    <g id="Group-78">
                        <mask id="mask-10" fill="white">
                            <use xlink:href="#path-9"></use>
                        </mask>
                        <g id="Clip-77"></g>
                        <polygon id="Fill-76" fill="#D6DDF0" mask="url(#mask-10)" points="-5 -5 30 -5 30 9.6452 -5 9.6452"></polygon>
                    </g>
                    <g id="Group-85">
                        <g id="Group-81">
                            <mask id="mask-12" fill="white">
                                <use xlink:href="#path-11"></use>
                            </mask>
                            <g id="Clip-80"></g>
                            <polygon id="Fill-79" fill="url(#linearGradient-13)" mask="url(#mask-12)" points="-1006 159 434 159 434 -1895 -1006 -1895"></polygon>
                        </g>
                        <g id="Group-84">
                            <mask id="mask-15" fill="white">
                                <use xlink:href="#path-14"></use>
                            </mask>
                            <g id="Clip-83"></g>
                            <polygon id="Fill-82" fill="url(#linearGradient-16)" mask="url(#mask-15)" points="-1006 159 434 159 434 -1895 -1006 -1895"></polygon>
                        </g>
                    </g>
                    <g id="Group-88">
                        <mask id="mask-18" fill="white">
                            <use xlink:href="#path-17"></use>
                        </mask>
                        <g id="Clip-87"></g>
                        <polygon id="Fill-86" fill="#8D9FCB" mask="url(#mask-18)" points="-4.219 -4.2258 29.219 -4.2258 29.219 13.5161 -4.219 13.5161"></polygon>
                    </g>
                    <g id="Group-91" transform="translate(10.000000, 3.000000)">
                        <mask id="mask-20" fill="white">
                            <use xlink:href="#path-19"></use>
                        </mask>
                        <g id="Clip-90"></g>
                        <polygon id="Fill-89" fill="#FFFFFF" mask="url(#mask-20)" points="-4.062 -4.9032 16.094 -4.9032 16.094 23.6774 -4.062 23.6774"></polygon>
                    </g>
                </g>
            </g>
        </g>
    </g>
</svg>