<?xml version="1.0" encoding="UTF-8"?>
<svg width="24px" height="24px" viewBox="0 0 24 24" version="1.1" xmlns="http://www.w3.org/2000/svg" xmlns:xlink="http://www.w3.org/1999/xlink">
    <!-- Generator: Sketch 54.1 (76490) - https://sketchapp.com -->
    <title>Group</title>
    <desc>Created with Sketch.</desc>
    <defs>
        <path d="M6.086,23.9151 C4.658,23.8502 3.883,23.6127 3.367,23.4115 C2.684,23.1455 2.197,22.8288 1.684,22.3166 C1.171,21.8045 0.854,21.3173 0.589,20.634 C0.388,20.1183 0.151,19.3429 0.086,17.9157 C0.014,16.3728 0,15.9099 0,12.0011 C0,8.0923 0.016,7.63 0.085,6.0858 C0.15,4.6585 0.389,3.8846 0.588,3.3674 C0.855,2.6841 1.172,2.1969 1.683,1.6834 C2.196,1.1712 2.683,0.8531 3.367,0.5885 C3.882,0.3873 4.658,0.1498 6.085,0.0849 C7.629,0.0143 8.092,0 12,0 C15.908,0 16.371,0.0157 17.915,0.0849 C19.342,0.1498 20.116,0.3887 20.633,0.5885 C21.317,0.8531 21.804,1.1712 22.317,1.6834 C22.829,2.1955 23.145,2.6834 23.412,3.3667 C23.613,3.8824 23.85,4.6578 23.915,6.0851 C23.986,7.6293 24,8.0915 24,12.0004 C24,15.9077 23.986,16.3714 23.915,17.9157 C23.85,19.3429 23.611,20.1183 23.412,20.634 C23.145,21.3173 22.829,21.8045 22.317,22.3166 C21.804,22.8288 21.317,23.1455 20.633,23.4115 C20.118,23.6127 19.342,23.8502 17.915,23.9151 C16.372,23.9857 15.908,24 12,24 C8.092,24 7.629,23.9864 6.086,23.9151 Z" id="path-1"></path>
        <radialGradient cx="76.6517681%" cy="93.3643427%" fx="76.6517681%" fy="93.3643427%" r="0.670371181%" gradientTransform="translate(0.766518,0.933643),scale(1.000000,0.701071),translate(-0.766518,-0.933643)" id="radialGradient-3">
            <stop stop-color="#8C3AAA" offset="0%"></stop>
            <stop stop-color="#8C3AAA" offset="100%"></stop>
        </radialGradient>
        <path d="M6.033,9 C6.033,10.639 7.361,11.968 9,11.968 C10.639,11.968 11.968,10.639 11.968,9 C11.968,7.361 10.639,6.032 9,6.032 C7.361,6.032 6.033,7.361 6.033,9 Z M4.428,9 C4.428,6.4749 6.475,4.4283 9,4.4283 C11.525,4.4283 13.572,6.475 13.572,9 C13.572,11.525 11.525,13.5717 9,13.5717 C6.475,13.5717 4.428,11.525 4.428,9 Z M12.685,4.247 C12.685,3.6573 13.164,3.1793 13.753,3.1791 L13.754,3.1791 C14.344,3.1793 14.822,3.6578 14.822,4.2479 C14.821,4.8379 14.343,5.3161 13.753,5.3158 C13.163,5.3156 12.685,4.8371 12.685,4.247 Z M5.403,16.2471 L5.403,16.2472 C6.342,16.2904 6.623,16.299 9,16.299 C11.378,16.299 11.66,16.2904 12.598,16.2472 C13.467,16.2078 13.938,16.0632 14.252,15.941 C14.668,15.7791 14.965,15.5861 15.276,15.275 C15.587,14.9639 15.78,14.6673 15.942,14.2516 C16.063,13.9381 16.209,13.4663 16.248,12.5983 C16.291,11.659 16.3,11.3779 16.3,9.0003 C16.3,6.6227 16.291,6.3416 16.248,5.4023 C16.209,4.5343 16.064,4.0623 15.942,3.7489 C15.78,3.3333 15.588,3.0363 15.276,2.7249 C14.964,2.4135 14.668,2.22 14.252,2.0589 C13.938,1.9378 13.467,1.7922 12.598,1.7526 C11.659,1.7099 11.377,1.7007 9,1.7007 C6.624,1.7007 6.342,1.7093 5.403,1.7525 C4.535,1.7919 4.063,1.9365 3.75,2.0588 C3.333,2.2199 3.037,2.4129 2.726,2.7247 C2.414,3.0365 2.222,3.3331 2.06,3.7488 C1.939,4.0631 1.793,4.5341 1.753,5.4022 C1.711,6.3414 1.702,6.6226 1.702,9.0001 C1.702,11.3777 1.71,11.6596 1.753,12.5981 C1.793,13.4661 1.938,13.9381 2.06,14.2515 C2.221,14.6672 2.414,14.9635 2.726,15.2749 C3.038,15.5863 3.334,15.779 3.75,15.9408 C4.063,16.063 4.535,16.2076 5.403,16.2471 Z M5.33,0.1507 C6.28,0.1068 6.584,0.0968 9.001,0.0968 C11.419,0.0968 11.722,0.1073 12.672,0.1507 C13.619,0.1931 14.266,0.3441 14.833,0.5642 C15.418,0.7915 15.915,1.0956 16.409,1.5912 C16.904,2.0867 17.209,2.5829 17.436,3.1683 C17.657,3.7339 17.807,4.3815 17.85,5.3294 C17.893,6.2787 17.903,6.5822 17.903,9 C17.903,11.4178 17.893,11.7206 17.85,12.6706 C17.808,13.6184 17.657,14.2657 17.436,14.8317 C17.209,15.4171 16.905,15.9141 16.409,16.4088 C15.914,16.9036 15.418,17.2078 14.832,17.4358 C14.266,17.6559 13.619,17.8061 12.671,17.8493 C11.722,17.8932 11.418,17.9032 9,17.9032 C6.582,17.9032 6.279,17.8925 5.33,17.8493 C4.382,17.8061 3.735,17.6559 3.168,17.4358 C2.582,17.2078 2.087,16.9034 1.591,16.4088 C1.096,15.9143 0.792,15.4171 0.564,14.8317 C0.344,14.2657 0.194,13.6185 0.151,12.6706 C0.107,11.7213 0.097,11.4178 0.097,9 C0.097,6.5822 0.107,6.2787 0.151,5.3294 C0.194,4.3816 0.344,3.7343 0.564,3.1683 C0.792,2.5822 1.096,2.0859 1.591,1.5912 C2.087,1.0964 2.583,0.7915 3.168,0.5642 C3.734,0.3441 4.382,0.1939 5.33,0.1507 Z" id="path-4"></path>
    </defs>
    <g id="Page-1" stroke="none" stroke-width="1" fill="none" fill-rule="evenodd">
        <g id="availability_website-(1)" transform="translate(-1070.000000, -1863.000000)">
            <g id="Group" transform="translate(1070.000000, 1863.000000)">
                <g id="Group-109">
                    <mask id="mask-2" fill="white">
                        <use xlink:href="#path-1"></use>
                    </mask>
                    <g id="Clip-108"></g>
                    <polygon id="Fill-107" fill="url(#radialGradient-3)" mask="url(#mask-2)" points="-1070 159 370 159 370 -1895 -1070 -1895"></polygon>
                </g>
                <g id="Group-112" transform="translate(3.000000, 3.000000)">
                    <mask id="mask-5" fill="white">
                        <use xlink:href="#path-4"></use>
                    </mask>
                    <g id="Clip-111"></g>
                    <polygon id="Fill-110" fill="#FFFFFF" mask="url(#mask-5)" points="-4.903 -4.9032 22.903 -4.9032 22.903 22.9032 -4.903 22.9032"></polygon>
                </g>
            </g>
        </g>
    </g>
</svg>