<?xml version="1.0" encoding="UTF-8"?>
<svg width="24px" height="24px" viewBox="0 0 24 24" version="1.1" xmlns="http://www.w3.org/2000/svg" xmlns:xlink="http://www.w3.org/1999/xlink">
    <!-- Generator: Sketch 54.1 (76490) - https://sketchapp.com -->
    <title>Group 10</title>
    <desc>Created with Sketch.</desc>
    <defs>
        <path d="M0,4.3076 C0,1.9332 1.933,0 4.308,0 L19.692,0 C22.067,0 24,1.9332 24,4.3076 L24,19.6925 C24,22.0668 22.067,24 19.692,24 L4.308,24 C1.933,24 0,22.0668 0,19.6925 L0,4.3076 Z" id="path-1"></path>
        <path d="M0,8.3346 L0,4.3842 C0,2.148 1.637,0.2955 3.749,0.0137 C3.853,0.0055 3.958,0 4.065,0 L19.89,0 C20.049,0 20.206,0.0103 20.361,0.0284 C22.397,0.3541 23.965,2.146 24,4.3113 L24,8.3798 C20.709,9.4356 16.567,10.0645 12.07,10.0645 C7.507,10.0645 3.312,9.4175 0,8.3346 Z" id="path-3"></path>
        <path d="M1.565,5.0861 L1.565,18.9086 C1.565,20.8583 3.142,22.4351 5.091,22.4351 L18.909,22.4351 C20.858,22.4351 22.435,20.8583 22.435,18.9086 L22.435,5.0861 C22.435,3.1417 20.858,1.5601 18.909,1.5601 L5.091,1.5601 C3.142,1.5601 1.565,3.1417 1.565,5.0861 Z M0.774,4.804 C0.774,2.5826 2.583,0.7742 4.804,0.7742 L19.196,0.7742 C21.417,0.7742 23.226,2.5826 23.226,4.804 L23.226,19.1958 C23.226,21.4174 21.417,23.2258 19.196,23.2258 L4.804,23.2258 C2.583,23.2258 0.774,21.4174 0.774,19.1958 L0.774,4.804 Z" id="path-5"></path>
        <path d="M9.067,5.2056 C9.662,3.3084 10.388,2.079 11.224,1.1877 C11.848,0.5225 12.17,0.3114 11.804,1.0437 C11.966,0.9112 12.198,0.7349 12.379,0.6407 C13.39,0.1527 13.319,0.5618 12.622,1.0003 C14.524,0.3045 14.458,1.1905 12.446,1.6318 C14.091,1.6635 15.839,2.7338 16.343,5.0102 C16.412,5.3253 16.329,5.2953 16.644,5.3524 C17.326,5.4757 17.966,5.4681 18.591,5.2652 C18.524,5.7362 17.915,6.0422 16.966,6.2444 C16.615,6.3192 16.542,6.2996 16.964,6.3965 C17.483,6.5159 18.064,6.5468 18.677,6.5173 C18.199,7.0801 17.437,7.3679 16.494,7.3797 C15.905,9.5815 14.557,11.1581 12.852,12.1477 C8.848,14.4716 3.019,14.1344 0.097,9.9111 C2.015,11.45 4.856,11.7889 6.966,9.6441 C5.584,9.6444 5.226,8.5858 6.322,8.014 C5.284,8.0031 4.624,7.6675 4.237,7.0596 C4.09,6.8288 4.088,6.8111 4.328,6.634 C4.592,6.4391 4.951,6.3524 5.322,6.3232 C4.248,6.0089 3.591,5.4349 3.364,4.6654 C3.288,4.4108 3.277,4.4237 3.53,4.358 C3.778,4.2937 4.096,4.2595 4.382,4.2451 C3.539,3.7218 3.034,3.0805 2.906,2.3715 C2.785,1.7024 2.91,1.8741 3.4,2.0658 C5.59,2.9228 7.774,3.8431 9.067,5.2056 Z" id="path-7"></path>
    </defs>
    <g id="Page-1" stroke="none" stroke-width="1" fill="none" fill-rule="evenodd">
        <g id="availability_website-(1)" transform="translate(-1038.000000, -1863.000000)">
            <g id="Group-10" transform="translate(1038.000000, 1863.000000)">
                <g id="Group-94">
                    <mask id="mask-2" fill="white">
                        <use xlink:href="#path-1"></use>
                    </mask>
                    <g id="Clip-93"></g>
                    <polygon id="Fill-92" fill="#6EBEDF" mask="url(#mask-2)" points="-5 -5 29 -5 29 29 -5 29"></polygon>
                </g>
                <g id="Group-8">
                    <g id="Group-97">
                        <mask id="mask-4" fill="white">
                            <use xlink:href="#path-3"></use>
                        </mask>
                        <g id="Clip-96"></g>
                        <polygon id="Fill-95" fill="#81C7E8" mask="url(#mask-4)" points="-5 -5 29 -5 29 15.0645 -5 15.0645"></polygon>
                    </g>
                    <g id="Group-7">
                        <g id="Group-100">
                            <mask id="mask-6" fill="white">
                                <use xlink:href="#path-5"></use>
                            </mask>
                            <g id="Clip-99"></g>
                            <polygon id="Fill-98" fill-opacity="0.5" fill="#FFFFFF" mask="url(#mask-6)" points="-4.226 -4.2258 28.226 -4.2258 28.226 28.2258 -4.226 28.2258"></polygon>
                        </g>
                        <g id="Group-103" transform="translate(3.000000, 5.000000)">
                            <mask id="mask-8" fill="white">
                                <use xlink:href="#path-7"></use>
                            </mask>
                            <g id="Clip-102"></g>
                            <polygon id="Fill-101" fill="#FFFFFF" mask="url(#mask-8)" points="-4.903 -4.5806 23.677 -4.5806 23.677 18.5806 -4.903 18.5806"></polygon>
                        </g>
                    </g>
                </g>
            </g>
        </g>
    </g>
</svg>