<?xml version="1.0" encoding="UTF-8"?>
<svg width="24px" height="24px" viewBox="0 0 24 24" version="1.1" xmlns="http://www.w3.org/2000/svg" xmlns:xlink="http://www.w3.org/1999/xlink">
    <!-- Generator: Sketch 54.1 (76490) - https://sketchapp.com -->
    <title>Group 2</title>
    <desc>Created with Sketch.</desc>
    <defs>
        <path d="M23.9752,17.8983 C23.9752,18.0295 23.9712,18.3139 23.9633,18.5336 C23.9441,19.0712 23.9015,19.7649 23.837,20.081 C23.7401,20.556 23.5939,21.0043 23.4033,21.3775 C23.1777,21.8189 22.89,22.2143 22.5481,22.5556 C22.2069,22.8962 21.8119,23.1828 21.3711,23.4074 C20.996,23.5986 20.5449,23.7449 20.0672,23.8413 C19.7542,23.9045 19.0657,23.9463 18.5316,23.9653 C18.3116,23.9732 18.0271,23.9771 17.8965,23.9771 L6.1017,23.9752 C5.9705,23.9752 5.6862,23.9712 5.4664,23.9633 C4.9288,23.944 4.2351,23.9014 3.919,23.837 C3.444,23.7401 2.9957,23.5939 2.6225,23.4033 C2.1811,23.1777 1.7857,22.89 1.4444,22.5481 C1.1038,22.2069 0.8172,21.8119 0.5926,21.3711 C0.4014,20.996 0.2551,20.5449 0.1587,20.0672 C0.0955,19.7542 0.0537,19.0657 0.0347,18.5315 C0.0269,18.3116 0.0229,18.0271 0.0229,17.8965 L0.0248,6.1017 C0.0248,5.9705 0.0288,5.6861 0.0367,5.4664 C0.056,4.9288 0.0986,4.2351 0.163,3.919 C0.2599,3.444 0.4061,2.9956 0.5967,2.6225 C0.8223,2.1811 1.1101,1.7856 1.4519,1.4444 C1.7931,1.1038 2.1881,0.8172 2.6289,0.5925 C3.004,0.4014 3.4552,0.2551 3.9329,0.1586 C4.2458,0.0955 4.9343,0.0537 5.4685,0.0347 C5.6884,0.0268 5.9729,0.0229 6.1036,0.0229 L17.8983,0.0248 C18.0295,0.0248 18.3139,0.0288 18.5336,0.0367 C19.0713,0.056 19.7649,0.0985 20.0811,0.163 C20.556,0.2599 21.0044,0.4061 21.3775,0.5967 C21.819,0.8223 22.2144,1.11 22.5556,1.4519 C22.8962,1.7931 23.1828,2.1881 23.4074,2.6289 C23.5986,3.004 23.7449,3.4551 23.8414,3.9328 C23.9045,4.2458 23.9463,4.9343 23.9654,5.4685 C23.9732,5.6884 23.9771,5.9729 23.9771,6.1036 L23.9752,17.8983 Z" id="path-1"></path>
        <linearGradient x1="67.6404792%" y1="92.2601217%" x2="67.6404792%" y2="142.114065%" id="linearGradient-3">
            <stop stop-color="#61FD7D" offset="0%"></stop>
            <stop stop-color="#2CB927" offset="100%"></stop>
        </linearGradient>
        <path d="M23.9752,17.8983 C23.9752,18.0295 23.9712,18.3139 23.9633,18.5336 C23.9441,19.0712 23.9015,19.7649 23.837,20.081 C23.7401,20.556 23.5939,21.0043 23.4033,21.3775 C23.1777,21.8189 22.89,22.2143 22.5481,22.5556 C22.2069,22.8962 21.8119,23.1828 21.3711,23.4074 C20.996,23.5986 20.5449,23.7449 20.0672,23.8413 C19.7542,23.9045 19.0657,23.9463 18.5316,23.9653 C18.3116,23.9732 18.0271,23.9771 17.8965,23.9771 L6.1017,23.9752 C5.9705,23.9752 5.6862,23.9712 5.4664,23.9633 C4.9288,23.944 4.2351,23.9014 3.919,23.837 C3.444,23.7401 2.9957,23.5939 2.6225,23.4033 C2.1811,23.1777 1.7857,22.89 1.4444,22.5481 C1.1038,22.2069 0.8172,21.8119 0.5926,21.3711 C0.4014,20.996 0.2551,20.5449 0.1587,20.0672 C0.0955,19.7542 0.0537,19.0657 0.0347,18.5315 C0.0269,18.3116 0.0229,18.0271 0.0229,17.8965 L0.0248,6.1017 C0.0248,5.9705 0.0288,5.6861 0.0367,5.4664 C0.056,4.9288 0.0986,4.2351 0.163,3.919 C0.2599,3.444 0.4061,2.9956 0.5967,2.6225 C0.8223,2.1811 1.1101,1.7856 1.4519,1.4444 C1.7931,1.1038 2.1881,0.8172 2.6289,0.5925 C3.004,0.4014 3.4552,0.2551 3.9329,0.1586 C4.2458,0.0955 4.9343,0.0537 5.4685,0.0347 C5.6884,0.0268 5.9729,0.0229 6.1036,0.0229 L17.8983,0.0248 C18.0295,0.0248 18.3139,0.0288 18.5336,0.0367 C19.0713,0.056 19.7649,0.0985 20.0811,0.163 C20.556,0.2599 21.0044,0.4061 21.3775,0.5967 C21.819,0.8223 22.2144,1.11 22.5556,1.4519 C22.8962,1.7931 23.1828,2.1881 23.4074,2.6289 C23.5986,3.004 23.7449,3.4551 23.8414,3.9328 C23.9045,4.2458 23.9463,4.9343 23.9654,5.4685 C23.9732,5.6884 23.9771,5.9729 23.9771,6.1036 L23.9752,17.8983 Z" id="path-4"></path>
        <linearGradient x1="68.4722222%" y1="92.2601217%" x2="68.4722222%" y2="93.4263471%" id="linearGradient-6">
            <stop stop-color="#61FD7D" offset="0%"></stop>
            <stop stop-color="#2CB927" offset="100%"></stop>
        </linearGradient>
        <path d="M15.4217,2.5719 C17.0228,4.1672 17.9041,6.2877 17.9032,8.5428 C17.9013,13.1964 14.0966,16.9827 9.4228,16.9827 L9.4193,16.9827 C7.9999,16.9821 6.6053,16.6278 5.3666,15.9554 L0.871,17.129 L2.0741,12.7555 C1.332,11.4756 0.9415,10.0236 0.9421,8.5361 C0.9439,3.8827 4.7483,0.0968 9.4226,0.0968 C11.6913,0.0977 13.8206,0.9767 15.4217,2.5719 Z M9.4228,15.5573 C13.3078,15.5573 16.4698,12.4104 16.4714,8.5423 C16.472,6.6679 15.7396,4.9054 14.4088,3.5795 C13.0779,2.2536 11.3082,1.5229 9.4255,1.5222 C5.5375,1.5222 2.3754,4.6689 2.3739,8.5367 C2.3733,9.8621 2.746,11.1531 3.4516,12.2699 L3.6192,12.5353 L2.9071,15.1239 L5.5749,14.4275 L5.8323,14.5795 C6.9145,15.2186 8.1551,15.5568 9.4199,15.5573 L9.4228,15.5573 Z M13.2891,10.3035 C13.501,10.4091 13.6422,10.4619 13.6952,10.5498 C13.7482,10.6378 13.7482,11.06 13.5716,11.5526 C13.395,12.0452 12.5484,12.4948 12.1413,12.5554 C11.7762,12.6096 11.3142,12.6323 10.8066,12.4718 C10.4989,12.3746 10.1042,12.2448 9.5986,12.0276 C7.473,11.1141 6.0847,8.984 5.9788,8.8433 C5.8728,8.7026 5.1136,7.6998 5.1136,6.6618 C5.1136,5.6238 5.661,5.1136 5.8552,4.9025 C6.0494,4.6914 6.279,4.6386 6.4202,4.6386 C6.5615,4.6386 6.7029,4.6399 6.8264,4.646 C6.9564,4.6525 7.1311,4.5968 7.3031,5.008 C7.4797,5.4303 7.9035,6.4683 7.9565,6.5738 C8.0095,6.6794 8.0448,6.8025 7.9741,6.9433 C7.9035,7.084 7.8682,7.172 7.7622,7.2951 C7.6563,7.4183 7.5397,7.5701 7.4444,7.6646 C7.3383,7.7697 7.2279,7.8838 7.3515,8.095 C7.4751,8.3061 7.9004,8.9968 8.5303,9.5559 C9.3396,10.2743 10.0224,10.497 10.2343,10.6026 C10.4462,10.7082 10.5698,10.6905 10.6934,10.5498 C10.8171,10.4091 11.2231,9.934 11.3644,9.7229 C11.5057,9.5118 11.6469,9.547 11.8411,9.6174 C12.0354,9.6877 13.0772,10.1979 13.2891,10.3035 Z" id="path-7"></path>
    </defs>
    <g id="Page-1" stroke="none" stroke-width="1" fill="none" fill-rule="evenodd">
        <g id="availability_website-(1)" transform="translate(-974.000000, -1863.000000)">
            <g id="Group-2" transform="translate(974.000000, 1863.000000)">
                <g id="Group-62">
                    <g id="Group-58">
                        <mask id="mask-2" fill="white">
                            <use xlink:href="#path-1"></use>
                        </mask>
                        <g id="Clip-57"></g>
                        <polygon id="Fill-56" fill="url(#linearGradient-3)" mask="url(#mask-2)" points="-974 159 466 159 466 -1895 -974 -1895"></polygon>
                    </g>
                    <g id="Group-61">
                        <mask id="mask-5" fill="white">
                            <use xlink:href="#path-4"></use>
                        </mask>
                        <g id="Clip-60"></g>
                        <polygon id="Fill-59" fill="url(#linearGradient-6)" mask="url(#mask-5)" points="-974 159 466 159 466 -1895 -974 -1895"></polygon>
                    </g>
                </g>
                <g id="Group-65" transform="translate(3.000000, 3.000000)">
                    <mask id="mask-8" fill="white">
                        <use xlink:href="#path-7"></use>
                    </mask>
                    <g id="Clip-64"></g>
                    <polygon id="Fill-63" fill="#FFFFFF" mask="url(#mask-8)" points="-4.129 -4.9032 22.9032 -4.9032 22.9032 22.129 -4.129 22.129"></polygon>
                </g>
            </g>
        </g>
    </g>
</svg>